<?xml version="1.0" encoding="UTF-8"?>
<!DOCTYPE svg PUBLIC "-//W3C//DTD SVG 1.1//EN" "http://www.w3.org/Graphics/SVG/1.1/DTD/svg11.dtd">
<svg version="1.1" xmlns="http://www.w3.org/2000/svg" xmlns:xlink="http://www.w3.org/1999/xlink" width="300" height="200"  xml:space="preserve">
    <defs>
        <pattern id="green-rectangle" x="-103" y="23" width="119" height="150" patternUnits="userSpaceOnUse" viewBox="0 0 119 150">
            <image xlink:href="http://cpanel41.proisp.no/~indexlun/images/green.png" x="0" y="0" width="119" height="150" />
        </pattern>
        <filter id="shadow-outer" filterUnits="userSpaceOnUse">
            <feGaussianBlur stdDeviation="2.5" />
            <feOffset dx="3.1" dy="3.1" result="blur" />
            <feFlood flood-color="rgb(0, 0, 0)" flood-opacity="1" />
            <feComposite in2="blur" operator="in" result="colorShadow" />
            <feComposite in="SourceGraphic" in2="colorShadow" operator="over" />
        </filter>
    </defs>
    <rect id="rectangle" stroke="rgb(0, 0, 0)" fill="url(#green-rectangle)" x="18.5" y="23.5" width="116.5" height="150" />
    <rect id="text" stroke="none" fill="none" x="146" y="24" width="142" height="49" />
    <text fill="rgb(0, 168, 0)" filter="url(#shadow-outer)" font-family="Helvetica, sans-serif" font-size="12" x="160.3" y="24">
        <tspan x="160.3" y="35">Tagged Image from a </tspan>
        <tspan x="176.98" y="49">recent game of </tspan>
        <tspan x="186.32" y="63">carcassone</tspan>
    </text>
    <path id="bezier" stroke="none" fill="rgb(255, 29, 29)" filter="url(#shadow-outer)" d="M 174.5,55.5 C 88.5,111.5 85.5,114.5 85.5,114.5" />
    <path stroke="rgb(255, 29, 29)" stroke-width="2" stroke-miterlimit="10" fill="none" d="M 174.5,55.5 C 88.5,111.5 85.5,114.5 85.5,114.5" />
    <path id="bezier2" stroke="rgb(0, 0, 0)" stroke-miterlimit="10" fill="rgb(128, 128, 128)" d="M 87.5,112.5 L 87.5,112.5 Z M 87.5,112.5" />
    <path id="bezier3" stroke="none" fill="rgb(255, 29, 29)" filter="url(#shadow-outer)" d="M 90.5,100.5 L 85.5,114.5 99.5,114.5" />
    <path stroke="rgb(255, 29, 29)" stroke-miterlimit="10" fill="none" d="M 90.5,100.5 L 85.5,114.5 99.5,114.5" />
    <rect id="text2" stroke="none" fill="none" x="-3" y="0" width="88" height="17" />
    <text fill="rgb(0, 168, 0)" filter="url(#shadow-outer)" font-family="Helvetica, sans-serif" font-size="14.5" x="8.09" y="0">
        <tspan x="8.09" y="14">Tag Word!</tspan>
    </text>
    <path id="bezier4" stroke="rgb(255, 29, 29)" stroke-width="2" stroke-miterlimit="10" fill="rgb(255, 29, 29)" d="M 44.5,17.5 C 58.21,30.72 60.5,31.5 60.5,31.5" />
    <path id="bezier5" stroke="none" fill="rgb(255, 29, 29)" filter="url(#shadow-outer)" d="M 62.5,25.5 L 55.5,37.5 65.5,37.5 62.5,25.5 Z M 62.5,25.5" />
    <path stroke="rgb(255, 29, 29)" stroke-miterlimit="10" fill="none" d="M 62.5,25.5 L 55.5,37.5 65.5,37.5 62.5,25.5 Z M 62.5,25.5" />
    <rect id="text3" stroke="none" fill="none" x="164" y="135" width="116" height="49" />
    <text fill="rgb(0, 168, 0)" font-family="Helvetica, sans-serif" font-size="12" x="173.31" y="135">
        <tspan x="173.31" y="146">zoom in the object </tspan>
        <tspan x="167.29" y="160">and doubletap to tag </tspan>
        <tspan x="219" y="174">it</tspan>
    </text>
    <path id="bezier6" stroke="rgb(255, 29, 29)" stroke-width="2.5" stroke-miterlimit="10" fill="none" filter="url(#shadow-outer)" d="M 163.5,159.5 C 94.5,165.5 95.5,164.5 95.5,164.5" />
    <path id="bezier7" stroke="none" fill="rgb(255, 29, 29)" filter="url(#shadow-outer)" d="M 94.5,160 L 94.5,172 87,167.36 94.5,160 Z M 94.5,160" />
    <path stroke="rgb(255, 29, 29)" stroke-width="2.5" stroke-miterlimit="10" fill="none" d="M 94.5,160 L 94.5,172 87,167.36 94.5,160 Z M 94.5,160" />
</svg>
